<svg width="369" height="98" viewBox="0 0 369 98" fill="none" xmlns="http://www.w3.org/2000/svg">
    <path fill-rule="evenodd" clip-rule="evenodd"
          d="M191.411 60.6313L186.787 55.9274C184.186 58.2932 181.875 59.815 178.104 59.815C172.434 59.815 168.471 55.0696 168.471 49.3695V49.2726C168.471 43.5864 172.489 38.9239 178.104 38.9239C181.282 39.0149 184.299 40.3503 186.512 42.6456L191.136 37.2914C189.449 35.5568 187.415 34.2022 185.168 33.3174C182.922 32.4325 180.514 32.0375 178.104 32.1585C175.837 32.0984 173.581 32.5006 171.472 33.3411C169.364 34.1815 167.447 35.4428 165.837 37.0486C164.227 38.6545 162.957 40.5717 162.104 42.6845C161.251 44.7974 160.833 47.062 160.875 49.3418V49.4387C160.832 51.6915 161.241 53.9298 162.077 56.0203C162.913 58.1108 164.159 60.0106 165.742 61.6064C167.324 63.2023 169.209 64.4614 171.286 65.3089C173.363 66.1563 175.588 66.5746 177.829 66.5389C180.39 66.6557 182.945 66.1844 185.298 65.1608C187.651 64.1372 189.742 62.5882 191.411 60.6313Z"
          fill="black"/>
    <path fill-rule="evenodd" clip-rule="evenodd"
          d="M221.824 53.2848V53.1879C221.814 51.4165 221.45 49.6651 220.754 48.0377C220.058 46.4103 219.044 44.94 217.772 43.7142C216.5 42.4883 214.996 41.5318 213.35 40.9014C211.703 40.271 209.947 39.9796 208.186 40.0445C206.412 39.9816 204.643 40.2767 202.984 40.9123C201.325 41.5479 199.809 42.5113 198.527 43.7454C197.244 44.9795 196.22 46.4594 195.516 48.0978C194.811 49.7362 194.44 51.4999 194.425 53.2848V53.3816C194.777 56.7935 196.378 59.9521 198.916 62.2444C201.454 64.5368 204.749 65.7994 208.161 65.7873C211.573 65.7753 214.859 64.4894 217.381 62.1791C219.903 59.8689 221.482 56.6991 221.81 53.2848H221.824ZM214.751 53.3816C214.804 54.2771 214.672 55.1739 214.365 56.0161C214.059 56.8584 213.582 57.6281 212.966 58.2771C212.35 58.9261 211.608 59.4407 210.786 59.7886C209.963 60.1365 209.078 60.3103 208.186 60.2992C207.286 60.2906 206.396 60.1005 205.571 59.7401C204.745 59.3796 203.999 58.8562 203.378 58.2009C202.757 57.5455 202.273 56.7715 201.955 55.9247C201.637 55.0779 201.491 54.1755 201.526 53.2709V53.1741C201.471 52.2782 201.6 51.3805 201.907 50.5373C202.213 49.6941 202.689 48.9236 203.305 48.2741C203.922 47.6247 204.665 47.1102 205.488 46.763C206.311 46.4158 207.197 46.2434 208.09 46.2565C208.99 46.2651 209.88 46.4552 210.706 46.8157C211.532 47.1761 212.277 47.6995 212.898 48.3549C213.519 49.0102 214.003 49.7842 214.322 50.6311C214.64 51.4779 214.786 52.3803 214.751 53.2848V53.3816Z"
          fill="black"/>
    <path fill-rule="evenodd" clip-rule="evenodd"
          d="M263.397 65.9577V49.3555C263.397 43.2265 260.177 40.0029 254.838 40.0029C253.248 39.9998 251.678 40.3607 250.247 41.0583C248.817 41.7558 247.563 42.7717 246.581 44.0289C245.902 42.741 244.869 41.6766 243.605 40.9627C242.341 40.2488 240.9 39.9156 239.452 40.0029C237.971 40.0147 236.516 40.3933 235.215 41.1052C233.914 41.8171 232.808 42.8402 231.994 44.0843V40.4733H224.769V65.9162H231.925V51.7628C231.925 48.3455 233.576 46.5884 236.274 46.5884C238.971 46.5884 240.471 48.3455 240.471 51.7628V65.9577H247.654V51.7628C247.654 48.3455 249.306 46.5884 252.003 46.5884C254.7 46.5884 256.131 48.3455 256.131 51.7628V65.9577H263.397Z"
          fill="black"/>
    <path fill-rule="evenodd" clip-rule="evenodd"
          d="M305.838 65.9577V49.3555C305.838 43.2265 302.631 40.0029 297.292 40.0029C295.702 39.9977 294.131 40.3577 292.7 41.0554C291.269 41.7532 290.016 42.7702 289.035 44.0289C288.355 42.7421 287.322 41.6786 286.058 40.9649C284.794 40.2512 283.354 39.9173 281.907 40.0029C280.426 40.0147 278.97 40.3933 277.669 41.1052C276.368 41.817 275.262 42.8402 274.448 44.0842V40.4733H267.264V65.9162H274.448V51.7628C274.448 48.3455 276.099 46.5884 278.783 46.5884C281.466 46.5884 282.994 48.3455 282.994 51.7628V65.9577H290.177V51.7628C290.177 48.3455 291.829 46.5884 294.512 46.5884C297.196 46.5884 298.723 48.3455 298.723 51.7628V65.9577H305.838Z"
          fill="black"/>
    <path fill-rule="evenodd" clip-rule="evenodd"
          d="M317.15 52.4827H332.728V45.9802H317.15V39.2286H334.861V32.7261H309.925V52.4827H317.15Z" fill="black"/>
    <path fill-rule="evenodd" clip-rule="evenodd"
          d="M367.916 32.7261H359.783L352.792 43.31L345.856 32.7261H337.352L348.402 49.0654L341.301 59.4694H309.925V65.9581H336.884H343.998H345.141L367.916 32.7261Z"
          fill="black"/>
    <path fill-rule="evenodd" clip-rule="evenodd"
          d="M368.521 65.9582L359.865 53.2021L355.682 59.3034L360.017 65.9582H368.521Z" fill="black"/>
    <path fill-rule="evenodd" clip-rule="evenodd"
          d="M44.0671 54.1014H67.6817V44.2369H44.0671V34.0127H70.9019V24.1621H33.1129V54.1014H44.0671Z" fill="black"/>
    <path fill-rule="evenodd" clip-rule="evenodd"
          d="M121.007 24.1621H108.677L98.0808 40.1832L87.5671 24.1621H74.6863L91.4341 48.9132L80.6726 64.6853H33.1129V74.5221H73.9707H84.7597H86.4937L121.007 24.1621Z"
          fill="black"/>
    <path fill-rule="evenodd" clip-rule="evenodd"
          d="M121.916 74.5222L108.801 55.1807L102.471 64.4364L109.035 74.5222H121.916Z" fill="black"/>
    <path fill-rule="evenodd" clip-rule="evenodd"
          d="M49.09 0.68363C60.6325 0.669477 71.7963 4.82307 80.5488 12.3882L71.5075 18.8215C65.8874 14.6488 59.2258 12.126 52.2642 11.534C45.3025 10.942 38.314 12.304 32.0767 15.4684C25.8393 18.6328 20.5979 23.4753 16.9358 29.4571C13.2738 35.4388 11.3348 42.3249 11.3348 49.3488C11.3348 56.3727 13.2738 63.2589 16.9358 69.2406C20.5979 75.2223 25.8393 80.0649 32.0767 83.2293C38.314 86.3937 45.3025 87.7557 52.2642 87.1636C59.2258 86.5716 65.8874 84.0488 71.5075 79.8761L80.5488 86.2956C74.6234 91.3986 67.5588 94.9857 59.9569 96.7514C52.355 98.5171 44.4412 98.4089 36.8899 96.4362C29.3385 94.4634 22.3735 90.6846 16.5883 85.4216C10.8031 80.1587 6.36917 73.5676 3.66443 66.2102C0.959682 58.8527 0.0642597 50.9468 1.05448 43.1664C2.0447 35.3859 4.89119 27.9614 9.35141 21.5256C13.8116 15.0898 19.7533 9.83342 26.6702 6.20442C33.5871 2.57541 41.2742 0.681349 49.0763 0.68363H49.09Z"
          fill="black"/>
    <path d="M144.017 0.683594H140.494V97.8618H144.017V0.683594Z" fill="black"/>
</svg>
